<!DOCTYPE svg PUBLIC "-//W3C//DTD SVG 1.1//EN" "http://www.w3.org/Graphics/SVG/1.1/DTD/svg11.dtd">
<!-- Uploaded to: SVG Repo, www.svgrepo.com, Transformed by: SVG Repo Mixer Tools -->
<svg fill="#fff" height="64px" width="64px" version="1.1" id="Layer_1" xmlns="http://www.w3.org/2000/svg" xmlns:xlink="http://www.w3.org/1999/xlink" viewBox="0 0 512.001 512.001" xml:space="preserve" stroke="#fff">
<g id="SVGRepo_bgCarrier" stroke-width="0"/>
<g id="SVGRepo_tracerCarrier" stroke-linecap="round" stroke-linejoin="round"/>
<g id="SVGRepo_iconCarrier"> <g> <g> <path d="M478.33,179.575H323.875v-17.637c0-18.566-15.105-33.67-33.67-33.67H117.14C152.826,89.354,202.562,67.341,256,67.341 c56.674,0,109.877,25.37,145.574,68.649l-20.078-6.944c-4.187-1.447-8.75,0.773-10.197,4.956 c-1.447,4.185,0.773,8.75,4.956,10.197l47.123,16.295c0.855,0.296,1.74,0.44,2.619,0.44c1.856,0,3.686-0.645,5.15-1.872 c2.159-1.809,3.21-4.617,2.77-7.399l-7.798-49.247c-0.693-4.373-4.8-7.358-9.172-6.665c-4.373,0.693-7.357,4.799-6.665,9.172 l3.222,20.347C374.783,78.635,317.264,51.307,256,51.307c-32.35,0-63.3,7.331-91.992,21.788 c-26.17,13.187-49.576,32.221-67.942,55.172H33.67c-18.566,0-33.67,15.105-33.67,33.67v136.818c0,18.566,15.105,33.67,33.67,33.67 h17.637v31.227c0,8.158,4.87,15.446,12.407,18.568c2.501,1.036,5.119,1.539,7.712,1.539c5.219,0,10.336-2.043,14.191-5.897 l45.437-45.437h57.072v17.637c0,18.566,15.105,33.67,33.67,33.67h159.152l7.056,7.056C352.541,425.568,305.864,444.66,256,444.66 c-45.021,0-87.444-15.565-121.36-44.186l23.815,4.031c4.37,0.741,8.504-2.202,9.242-6.567c0.737-4.365-2.202-8.503-6.567-9.242 l-49.163-8.319c-2.778-0.47-5.596,0.552-7.428,2.69c-1.831,2.139-2.406,5.083-1.515,7.753l15.794,47.294 c1.121,3.357,4.248,5.479,7.603,5.479c0.842,0,1.698-0.134,2.541-0.415c4.2-1.402,6.467-5.944,5.064-10.144l-5.665-16.962 c36.103,28.934,80.561,44.621,127.639,44.621c54.159,0,104.853-20.757,143.342-58.566l27.043,27.043 c3.853,3.853,8.971,5.897,14.191,5.897c2.592,0,5.211-0.505,7.712-1.539c7.537-3.122,12.407-10.41,12.407-18.568v-31.228h17.637 c18.566,0,33.67-15.105,33.67-33.67V213.245C512,194.679,496.895,179.575,478.33,179.575z M188.125,213.245v103.148h-60.392 c-2.126,0-4.165,0.844-5.668,2.348l-47.786,47.786c-1.734,1.733-3.675,1.193-4.43,0.881c-0.755-0.312-2.509-1.304-2.509-3.755 V324.41c0-4.427-3.589-8.017-8.017-8.017H33.67c-9.725,0-17.637-7.912-17.637-17.637V161.938c0-9.725,7.912-17.637,17.637-17.637 h256.534c9.725,0,17.637,7.912,17.637,17.637v17.637h-86.046C203.23,179.575,188.125,194.679,188.125,213.245z M495.967,350.063 c0,9.725-7.912,17.637-17.637,17.637h-25.653c-4.427,0-8.017,3.589-8.017,8.017v39.243c0,2.451-1.755,3.442-2.509,3.755 c-0.754,0.312-2.696,0.852-4.43-0.881l-47.786-47.786c-1.503-1.504-3.542-2.348-5.668-2.348H221.795 c-9.725,0-17.637-7.912-17.637-17.637V213.245c0-9.725,7.912-17.637,17.637-17.637H478.33c9.725,0,17.637,7.912,17.637,17.637 V350.063z"/> </g> </g> <g> <g> <path d="M76.425,171.023H50.772c-4.427,0-8.017,3.589-8.017,8.017s3.589,8.017,8.017,8.017h25.652 c4.427,0,8.017-3.589,8.017-8.017S80.852,171.023,76.425,171.023z"/> </g> </g> <g> <g> <path d="M170.489,171.023h-59.86c-4.427,0-8.017,3.588-8.017,8.017c0,4.427,3.589,8.017,8.017,8.017h59.86 c4.427,0,8.017-3.589,8.017-8.017C178.505,174.612,174.916,171.023,170.489,171.023z"/> </g> </g> <g> <g> <path d="M110.626,205.228H50.772c-4.427,0-8.017,3.589-8.017,8.017s3.589,8.017,8.017,8.017h59.854 c4.427,0,8.017-3.589,8.017-8.017S115.054,205.228,110.626,205.228z"/> </g> </g> <g> <g> <path d="M161.937,205.228h-17.103c-4.427,0-8.017,3.589-8.017,8.017s3.589,8.017,8.017,8.017h17.103 c4.427,0,8.017-3.589,8.017-8.017S166.365,205.228,161.937,205.228z"/> </g> </g> <g> <g> <path d="M161.937,239.433H50.772c-4.427,0-8.017,3.589-8.017,8.017s3.589,8.017,8.017,8.017h111.165 c4.427,0,8.017-3.589,8.017-8.017S166.365,239.433,161.937,239.433z"/> </g> </g> <g> <g> <path d="M76.425,273.637H50.772c-4.427,0-8.017,3.589-8.017,8.017s3.589,8.017,8.017,8.017h25.652 c4.427,0,8.017-3.589,8.017-8.017S80.852,273.637,76.425,273.637z"/> </g> </g> <g> <g> <path d="M161.937,273.637h-51.309c-4.427,0-8.017,3.589-8.017,8.017s3.589,8.017,8.017,8.017h51.309 c4.427,0,8.017-3.589,8.017-8.017S166.365,273.637,161.937,273.637z"/> </g> </g> <g> <g> <path d="M411.39,298.756l22.046-29.395c2.656-3.541,1.938-8.567-1.603-11.223c-3.541-2.656-8.567-1.938-11.223,1.603 l-19.24,25.653l-19.24-25.653c-2.657-3.541-7.681-4.26-11.223-1.603c-3.541,2.656-4.26,7.682-1.603,11.223l22.046,29.395 l-22.046,29.395c-2.656,3.541-1.938,8.567,1.603,11.223c1.442,1.082,3.13,1.603,4.804,1.603c2.437,0,4.845-1.107,6.42-3.207 l19.24-25.653l19.24,25.653c1.576,2.1,3.983,3.207,6.42,3.207c1.674,0,3.362-0.523,4.804-1.603 c3.541-2.656,4.26-7.682,1.603-11.223L411.39,298.756z"/> </g> </g> <g> <g> <path d="M444.125,222.33h-85.511c-3.037,0-5.813,1.716-7.17,4.432l-48.412,96.824l-22.759-45.517 c-1.357-2.716-4.133-4.432-7.17-4.432h-25.653c-4.427,0-8.017,3.589-8.017,8.017s3.589,8.017,8.017,8.017h20.699l23.438,46.875 c1.357,2.716,4.133,4.432,7.17,4.432h8.551c3.037,0,5.813-1.716,7.17-4.432l49.091-98.182h80.557c4.427,0,8.017-3.589,8.017-8.017 S448.553,222.33,444.125,222.33z"/> </g> </g> </g>
</svg>