<!DOCTYPE svg PUBLIC "-//W3C//DTD SVG 1.1//EN" "http://www.w3.org/Graphics/SVG/1.1/DTD/svg11.dtd">
<!-- Uploaded to: SVG Repo, www.svgrepo.com, Transformed by: SVG Repo Mixer Tools -->
<svg width="64px" height="64px" viewBox="-102.4 -102.4 1228.80 1228.80" xmlns="http://www.w3.org/2000/svg" fill="" stroke="" transform="rotate(0)matrix(1, 0, 0, 1, 0, 0)">
<g id="SVGRepo_bgCarrier" stroke-width="0"/>
<g id="SVGRepo_tracerCarrier" stroke-linecap="round" stroke-linejoin="round"/>
<g id="SVGRepo_iconCarrier">
<path fill="#fff" d="M224 128v704h576V128H224zm-32-64h640a32 32 0 0 1 32 32v768a32 32 0 0 1-32 32H192a32 32 0 0 1-32-32V96a32 32 0 0 1 32-32z"/>
<path fill="#fff" d="M64 832h896v64H64zm256-640h128v96H320z"/>
<path fill="#fff" d="M384 832h256v-64a128 128 0 1 0-256 0v64zm128-256a192 192 0 0 1 192 192v128H320V768a192 192 0 0 1 192-192zM320 384h128v96H320zm256-192h128v96H576zm0 192h128v96H576z"/>
</g>
</svg>